# xmcd
#
# Track frame offsets:
#	151
#	13896
#	30427
#	46946
#	62984
#	74368
#	96208
#	113506
#	127906
#	141718
#	156116
#	174599
#	196168
#	214806
#	227651
#	238111
#	254968
#	269479
#	291262
#	306315
#	320036
#
# Disc length: 4466 seconds
#
# Revision: 0
# Processed by: cddbd v1.5.1PL0 Copyright (c) Steve Scherf et al.
# Submitted via: dBpowerAMP V4.0
#
DISCID=46117015
DTITLE=John Denver - The Very Best of John Denver
DYEAR=1900
DGENRE=Country
TTITLE0=Annie's Song
TTITLE1=Leaving on a Jet Plane
TTITLE2=Goodbye Again
TTITLE3=I'm Sorry
TTITLE4=Follow Me
TTITLE5=My Sweet Lady
TTITLE6=Seasons of the Heart
TTITLE7=How Can I Leave You Again
TTITLE8=Fly Away
TTITLE9=Shanghai Breezes
TTITLE10=Dreamland Express
TTITLE11=Back Home Again
TTITLE12=Poems, Prayers and Promises
TTITLE13=Thank God I'm a Country Boy
TTITLE14=Grandma's Feather Bed
TTITLE15=Matthew
TTITLE16=Country Road Take Me Home
TTITLE17=Rocky Mountain High
TTITLE18=Starwood in Aspen
TTITLE19=For Baby (For Bobbie)
TTITLE20=Rhymes and Reasons
EXTD=
EXTT0=
EXTT1=
EXTT2=
EXTT3=
EXTT4=
EXTT5=
EXTT6=
EXTT7=
EXTT8=
EXTT9=
EXTT10=
EXTT11=
EXTT12=
EXTT13=
EXTT14=
EXTT15=
EXTT16=
EXTT17=
EXTT18=
EXTT19=
EXTT20=
PLAYORDER=
